<?xml version="1.0" encoding="UTF-8"?><svg id="Calque_2" xmlns="http://www.w3.org/2000/svg" viewBox="0 0 677 928"><defs><style>.cls-1{fill:#fff;}.cls-2{fill:#575756;}.cls-3{fill:#1d1d1b;}</style></defs><g id="_Ñëîé_1"><path class="cls-3" d="m640,928H37c-20.43,0-37-16.64-37-37.16V37.16C0,16.64,16.57,0,37,0h603c20.43,0,37,16.64,37,37.16v853.68c0,20.52-16.57,37.16-37,37.16Z"/><rect class="cls-1" x="41" y="84" width="596" height="760"/><path class="cls-2" d="m343.25,44c0,2.62-2.13,4.75-4.75,4.75s-4.75-2.13-4.75-4.75,2.13-4.75,4.75-4.75,4.75,2.13,4.75,4.75Z"/><path class="cls-2" d="m352.72,895.5h-28.45c-9.51,0-17.22-2.85-17.22-6.36v-8.29c0-3.51,7.71-6.36,17.22-6.36h28.45c9.51,0,17.22,2.85,17.22,6.36v8.29c0,3.51-7.71,6.36-17.22,6.36Z"/></g></svg>